<svg xmlns="http://www.w3.org/2000/svg" viewBox="0 0 197.3 137.35"><defs><style>.cls-1{fill:#ffffff;}</style></defs><title>Fichier 8</title><g id="Calque_2" data-name="Calque 2"><g id="Calque_1-2" data-name="Calque 1"><path class="cls-1" d="M156.23,85.16c4,12.09.69,18.16-11.82,22.06-1.21,8.18-7.58,10.39-15.22,11-2.29,6.72-7,10.13-14,10.59-1.56.1-3,1.8-4.54,2.44-4.11,1.62-8.22,4.06-12.44,4.32A76.83,76.83,0,0,1,79,134.07c-3-.57-5.46-3.43-8.76-5.65-8.62,1-12.53-1.35-16.71-10.65-11.61-3.93-13.43-6.17-14-17.23C26.73,93.62,25.9,88.27,36.1,74.14L27.17,64.5c-8,2.78-18.93-.51-23.51-6.67A9.31,9.31,0,0,1,3.1,47.06c7.67-13.44,15.31-26.9,23.23-40.2,3.15-5.29,8-6.56,13.29-3.51,5.08,2.9,9.74,6.55,15.91,10.77,12.65-3.34,27.39-8.67,42.55.31,15.11-9.07,30.27-3.5,45.77.68,2.6-7.18,9.19-9.5,15.1-12.44,4.45-2.21,8.94-.76,11.64,3.78q12.06,20.22,23.51,40.81c3,5.4,1.58,10.05-3.79,13.23-6,3.54-11.73,9.38-19.88,3.48C163.24,69.57,162.08,78.89,156.23,85.16ZM103.42,48.61c-3.22,3.3-5.73,5.84-8.2,8.42-3.72,3.89-7.09,8.17-11.16,11.64C77,74.7,69.59,72,68.51,62.89c-1.62-13.69.54-26.45,11.83-36.06,3.51-3,7-6,11-9.51a38.58,38.58,0,0,0-5.12-1.75c-12-2-23,1.78-33.94,5.94A5.36,5.36,0,0,0,50,23.87c-6.83,11.78-13.61,23.6-19.85,34.45l21.1,27.73c10.48-8.34,19.1-4,22.67,7.09,10.26,2,12.34,4.24,14,14.93,10.37,5.65,11.16,8.76,5.1,21.64,5.28.88,10,.86,14.21-3.13l-5.63-6c3.48-2.95,3.48-2.95,8.43.28,6.37,4.16,10.84,2.63,13.33-5-2.84-2.14-5.83-4.44-8.86-6.66-6.31-4.62-6.32-4.6-4.65-9.41,2,1.16,3.86,2.14,5.61,3.33,3.33,2.28,6.47,4.85,9.9,7,1.83,1.12,4.22,2.36,6.11,2a10.26,10.26,0,0,0,6.37-3.78c.61-.91-1.31-4.37-2.89-5.73-4.91-4.24-10.26-8-15.32-12A38.77,38.77,0,0,1,115.44,86l1.13-2c2,.61,4.21.78,5.79,1.91,5.65,4,11,8.48,16.59,12.62,4.61,3.42,8.85,3.13,11.85-.56,3.13-3.86,2.55-7.59-2.12-11.54C137.9,77.33,127,68.29,116.2,59.23,112.11,55.8,108,52.41,103.42,48.61Zm63.33,9.14c-3.76-6.53-9.05-13.49-12-21.33C149.32,22.09,138,17.74,124.61,15.91a17.21,17.21,0,0,0-4-.48c-5.25.53-11.25-.17-15.57,2.18A118.86,118.86,0,0,0,81,34.47c-8.54,7.89-8.1,18.89-6.45,29.57.14.88,1.38,1.58,3,3.3l25.54-26.23,48.86,40.7C156.92,73.73,161.46,66.35,166.75,57.75ZM191.29,53,164.93,7.4c-6.62.5-10.79,3.95-15.78,8.07,8.69,15.83,17.16,31.32,27.4,46.78ZM5.83,53.22l15.45,9.19L47.81,16.49c-4.89-6.1-9.84-8.62-16-8.32ZM58.7,115.57c3.92,7.53,7.75,9.52,11.23,6.16A89.88,89.88,0,0,0,80.7,108.92c2-2.82,1.56-6.61-1.64-8.16-2.12-1-6.25-1.06-7.74.34C66.65,105.46,62.82,110.71,58.7,115.57Zm-5.78-4.45c.61-.27,2.14-.48,2.92-1.36,3.73-4.16,7.47-8.33,10.75-12.82C68.73,94,67.8,90.87,65,88.66s-6-1.86-8.43.75a118.23,118.23,0,0,0-9.91,11.79C43.62,105.43,47,111.05,52.92,111.12ZM76.24,124.3c3.4,4.84,6.06,5.58,9.6,3.29,3.84-2.5,6.29-7.87,4.86-10.69a4.71,4.71,0,0,0-7.81-1.06C80.45,118.33,78.54,121.33,76.24,124.3ZM47.06,91,39.51,79.69c-5.25,6.36-6,9.66-3,12.47C39.94,95.33,43.33,95,47.06,91Z"/><path class="cls-1" d="M156.23,85.16l-1.58.52a25.73,25.73,0,0,1,1.51,7.88,10.79,10.79,0,0,1-.68,4,10.13,10.13,0,0,1-3.74,4.54,28.15,28.15,0,0,1-7.82,3.58,1.66,1.66,0,0,0-1.15,1.33,10.83,10.83,0,0,1-1.56,4.42,8.8,8.8,0,0,1-2,2.18,13,13,0,0,1-4.38,2.06,31,31,0,0,1-5.74.94,1.68,1.68,0,0,0-1.44,1.12,16.54,16.54,0,0,1-2,4,11.64,11.64,0,0,1-4.33,3.85,15.59,15.59,0,0,1-6.28,1.59,4.71,4.71,0,0,0-1.77.51,13.93,13.93,0,0,0-1.9,1.21,7.15,7.15,0,0,1-1.38.84c-2.14.84-4.2,1.86-6.19,2.68a18.75,18.75,0,0,1-5.74,1.53c-1.18.07-2.37.11-3.56.11a80.27,80.27,0,0,1-15.19-1.6,5.53,5.53,0,0,1-1.67-.64,21.7,21.7,0,0,1-2.94-2.06c-1.06-.85-2.23-1.81-3.55-2.69a1.62,1.62,0,0,0-1.11-.27,27.84,27.84,0,0,1-3.13.2,12.8,12.8,0,0,1-3.79-.5,8.44,8.44,0,0,1-2.23-1,11.57,11.57,0,0,1-3-3,32.64,32.64,0,0,1-2.9-5.31,1.66,1.66,0,0,0-1-.89,50.47,50.47,0,0,1-6.78-2.7,12.39,12.39,0,0,1-2.94-2A7.38,7.38,0,0,1,43,109.79a11.37,11.37,0,0,1-1.24-3.64,43.91,43.91,0,0,1-.58-5.7,1.66,1.66,0,0,0-.87-1.37,28.72,28.72,0,0,1-7.39-5.19,8.48,8.48,0,0,1-1.63-2.43,6.33,6.33,0,0,1-.51-2.54,13.36,13.36,0,0,1,1.59-5.68,56.77,56.77,0,0,1,5.08-8.13A1.65,1.65,0,0,0,37.32,73l-8.93-9.65a1.65,1.65,0,0,0-1.76-.43,17.39,17.39,0,0,1-5.71.9,23.2,23.2,0,0,1-9.18-2,16.73,16.73,0,0,1-6.75-5,7.75,7.75,0,0,1-1.68-4.71,8.55,8.55,0,0,1,1.23-4.25C12.21,34.44,19.85,21,27.75,7.71a10.11,10.11,0,0,1,3-3.31,6.08,6.08,0,0,1,3.41-1,9.5,9.5,0,0,1,4.64,1.4c4.94,2.82,9.58,6.45,15.79,10.71a1.68,1.68,0,0,0,1.36.23c3.77-1,7.67-2.15,11.66-3.05a55.53,55.53,0,0,1,12.2-1.54,33.28,33.28,0,0,1,17.43,4.72,1.63,1.63,0,0,0,1.69,0A32.35,32.35,0,0,1,116,11.2,59.79,59.79,0,0,1,129.5,13c4.57,1.06,9.2,2.44,13.92,3.71a1.65,1.65,0,0,0,2-1,12.89,12.89,0,0,1,2.33-4.05,18.77,18.77,0,0,1,5.33-4.17c2.07-1.17,4.35-2.17,6.61-3.29A7.46,7.46,0,0,1,163,3.31a6.13,6.13,0,0,1,3.31,1,8.86,8.86,0,0,1,2.82,3q12,20.22,23.49,40.77a9.36,9.36,0,0,1,1.33,4.5A5.9,5.9,0,0,1,192.92,56a10.4,10.4,0,0,1-3.46,3.07c-2.16,1.29-4.2,2.78-6.2,3.91a17.74,17.74,0,0,1-3,1.36,9.42,9.42,0,0,1-2.94.51,8.36,8.36,0,0,1-2.77-.49,12.43,12.43,0,0,1-3.18-1.72,1.67,1.67,0,0,0-2,0,22.94,22.94,0,0,0-4.77,5.17,73.11,73.11,0,0,0-4.72,8.6A31.88,31.88,0,0,1,155,84a1.69,1.69,0,0,0-.37,1.65l1.58-.52,1.21,1.13a29.1,29.1,0,0,0,3.91-5.48c1.62-2.87,2.9-5.82,4.42-8.52a22.6,22.6,0,0,1,5.68-7l-1-1.3-1,1.34a15.76,15.76,0,0,0,4,2.16,11.48,11.48,0,0,0,3.86.68,12.46,12.46,0,0,0,4-.68,24.7,24.7,0,0,0,5.19-2.6c1.61-1,3.14-2.08,4.62-3a13.91,13.91,0,0,0,4.52-4.07,9.25,9.25,0,0,0,1.63-5.28,12.59,12.59,0,0,0-1.75-6.1Q184.12,25.84,172,5.6a12,12,0,0,0-3.9-4.12A9.45,9.45,0,0,0,163,0a10.93,10.93,0,0,0-4.83,1.19,75.56,75.56,0,0,0-9,4.74,19.78,19.78,0,0,0-4,3.55,16.55,16.55,0,0,0-2.92,5.06l1.56.57.43-1.6c-4.66-1.26-9.33-2.65-14-3.74A63,63,0,0,0,116,7.89,35.55,35.55,0,0,0,97.23,13l.85,1.42L98.92,13A36.57,36.57,0,0,0,79.81,7.82c-8.94,0-17.29,2.75-24.7,4.7l.42,1.6.93-1.36c-6.11-4.19-10.79-7.86-16-10.85A12.68,12.68,0,0,0,34.16.07a9.37,9.37,0,0,0-5.22,1.56,13.27,13.27,0,0,0-4,4.38C17,19.33,9.33,32.8,1.67,46.24A11.85,11.85,0,0,0,0,52.13a11.19,11.19,0,0,0,2.33,6.69,20.1,20.1,0,0,0,8.08,6.1,26.46,26.46,0,0,0,10.51,2.23,20.66,20.66,0,0,0,6.8-1.09l-.55-1.56L26,65.62l8.93,9.64,1.21-1.12-1.34-1a59.42,59.42,0,0,0-5.38,8.63,16.56,16.56,0,0,0-1.92,7.12,9.79,9.79,0,0,0,.77,3.84,13.47,13.47,0,0,0,3.85,4.9A39.1,39.1,0,0,0,38.73,102l.78-1.45-1.65.08a40.15,40.15,0,0,0,.85,7.11,13.45,13.45,0,0,0,1.59,4,11,11,0,0,0,2,2.4,18.21,18.21,0,0,0,4.4,2.77A59.59,59.59,0,0,0,53,119.33l.53-1.56-1.51.67a38.22,38.22,0,0,0,2.84,5.32,18.85,18.85,0,0,0,2.39,2.94,12,12,0,0,0,4.36,2.76,15.61,15.61,0,0,0,5.31.83,31.59,31.59,0,0,0,3.51-.23l-.19-1.64-.92,1.37c1.54,1,3,2.28,4.44,3.39a18.37,18.37,0,0,0,2.3,1.53,9,9,0,0,0,2.63,1,83.51,83.51,0,0,0,15.82,1.66c1.26,0,2.51,0,3.76-.12a21.67,21.67,0,0,0,6.79-1.77c2.14-.88,4.19-1.89,6.15-2.66a8.14,8.14,0,0,0,1.47-.8c.65-.42,1.19-.85,1.65-1.13a3.38,3.38,0,0,1,.58-.31,1.11,1.11,0,0,1,.35-.09,20.8,20.8,0,0,0,5.26-1,15.11,15.11,0,0,0,6.28-3.93,18.4,18.4,0,0,0,4-6.79l-1.57-.54.14,1.65A34.48,34.48,0,0,0,135,119a19.11,19.11,0,0,0,3.87-1.38,12.5,12.5,0,0,0,4.69-3.84,13.82,13.82,0,0,0,2.47-6.31l-1.64-.25.49,1.58a37.58,37.58,0,0,0,6.26-2.51,16.27,16.27,0,0,0,6.22-5.29A11.8,11.8,0,0,0,159,97.52a14.62,14.62,0,0,0,.51-4,29,29,0,0,0-1.67-8.91l-1.57.51,1.21,1.13ZM103.42,48.61l-1.19-1.15C99,50.75,96.51,53.29,94,55.89c-3.78,4-7.13,8.2-11,11.52a13.47,13.47,0,0,1-3.43,2.17,7.83,7.83,0,0,1-3,.67,5.54,5.54,0,0,1-2.22-.45,6,6,0,0,1-2.64-2.38,11.31,11.31,0,0,1-1.52-4.72,63.42,63.42,0,0,1-.47-7.45,38.84,38.84,0,0,1,2.61-14.7,31.76,31.76,0,0,1,9.12-12.46c3.52-3,7-6,11-9.52a1.65,1.65,0,0,0-.54-2.82c-1.07-.37-2-.73-2.81-1.05a13.73,13.73,0,0,0-2.58-.76,42.63,42.63,0,0,0-7-.59A54.91,54.91,0,0,0,65.21,15.4,140.32,140.32,0,0,0,51.69,20a5.27,5.27,0,0,0-1.93,1.4A10.14,10.14,0,0,0,48.55,23C41.71,34.82,34.93,46.65,28.7,57.5a1.63,1.63,0,0,0,.11,1.82l21.1,27.73a1.65,1.65,0,0,0,1.11.64,1.68,1.68,0,0,0,1.24-.34,20.54,20.54,0,0,1,5-3.06,11.52,11.52,0,0,1,4.35-.93A8.5,8.5,0,0,1,65,84a10.55,10.55,0,0,1,4.23,3.4,20.17,20.17,0,0,1,3.14,6.23,1.69,1.69,0,0,0,1.26,1.12,34.39,34.39,0,0,1,6,1.59,9.91,9.91,0,0,1,2.69,1.51,6.63,6.63,0,0,1,1.35,1.49,11.86,11.86,0,0,1,1.5,3.46,43.62,43.62,0,0,1,1.11,5.5,1.68,1.68,0,0,0,.84,1.21,25.89,25.89,0,0,1,6.35,4.34,6.45,6.45,0,0,1,1.3,1.92,5.5,5.5,0,0,1,.41,2.18,14.5,14.5,0,0,1-.89,4.44,63.6,63.6,0,0,1-2.77,6.6,1.65,1.65,0,0,0,1.23,2.33,30.9,30.9,0,0,0,5.12.49,15.86,15.86,0,0,0,5.42-.87,14.6,14.6,0,0,0,5.08-3.18,1.67,1.67,0,0,0,.07-2.34l-5.63-6-1.21,1.14,1.07,1.26a22.61,22.61,0,0,1,1.89-1.51,2,2,0,0,1,.45-.24.54.54,0,0,1,.18,0,1,1,0,0,1,.33.07,7.08,7.08,0,0,1,1.3.66c.6.35,1.36.85,2.31,1.46a17.62,17.62,0,0,0,3.59,1.86,10,10,0,0,0,3.46.67,7.36,7.36,0,0,0,2.9-.58,8.52,8.52,0,0,0,3.49-2.94,17.53,17.53,0,0,0,2.36-4.93,1.65,1.65,0,0,0-.57-1.83c-2.84-2.14-5.83-4.44-8.88-6.68a46.34,46.34,0,0,1-4.18-3.24,3.51,3.51,0,0,1-.63-.78.81.81,0,0,1-.1-.45,4.4,4.4,0,0,1,.19-1.07q.22-.77.66-2l-1.57-.55-.84,1.43c2,1.19,3.88,2.15,5.52,3.27,3.25,2.22,6.41,4.81,10,7a22.72,22.72,0,0,0,2.92,1.54,9,9,0,0,0,3.45.81,6.65,6.65,0,0,0,.88-.07h0a12.8,12.8,0,0,0,4.15-1.53,10.19,10.19,0,0,0,3.32-3,2.13,2.13,0,0,0,.32-.74,2.69,2.69,0,0,0,.08-.66,3.86,3.86,0,0,0-.12-.92,7.9,7.9,0,0,0-.53-1.5,14.13,14.13,0,0,0-1.29-2.21,9.91,9.91,0,0,0-1.63-1.87c-5-4.32-10.37-8.06-15.38-12.09a14.77,14.77,0,0,1-1.91-2c-.64-.75-1.28-1.58-2-2.4L115.44,86l1.44.81,1.13-2L116.57,84l-.5,1.58c1.11.34,2.19.54,3.12.78a6.73,6.73,0,0,1,2.2.89c5.59,4,11,8.43,16.57,12.61a15.55,15.55,0,0,0,3.57,2,10,10,0,0,0,3.58.7,8.29,8.29,0,0,0,3.82-.93A10,10,0,0,0,152.08,99a11.1,11.1,0,0,0,1.71-2.79,7.78,7.78,0,0,0,.62-3A8.16,8.16,0,0,0,153.17,89a16,16,0,0,0-3.42-3.85C139,76.06,128.1,67,117.26,58c-4.1-3.43-8.22-6.83-12.78-10.62a1.66,1.66,0,0,0-2.25.12l1.19,1.15-1.06,1.28c4.58,3.79,8.69,7.19,12.78,10.61,10.84,9.06,21.7,18.1,32.47,27.22a12.42,12.42,0,0,1,2.72,3,4.8,4.8,0,0,1,.77,2.51,4.4,4.4,0,0,1-.37,1.74,8,8,0,0,1-1.22,2,6.55,6.55,0,0,1-2.11,1.78,4.79,4.79,0,0,1-2.29.56,6.72,6.72,0,0,1-2.39-.48,12.25,12.25,0,0,1-2.78-1.59c-5.54-4.11-10.91-8.55-16.62-12.64a10,10,0,0,0-3.3-1.41c-1.09-.27-2.11-.47-3-.73a1.64,1.64,0,0,0-1.93.76l-1.13,2a1.66,1.66,0,0,0,.21,1.92c.63.71,1.26,1.51,2,2.33a17.8,17.8,0,0,0,2.37,2.39c5.12,4.12,10.46,7.84,15.28,12a6.37,6.37,0,0,1,.82.9,10.93,10.93,0,0,1,1.19,1.9,6.42,6.42,0,0,1,.33.83,1.54,1.54,0,0,1,.07.27l0,.08v0h.51l-.5-.12a1.09,1.09,0,0,0,0,.12h.51l-.5-.12,1,.24-.84-.57a1.22,1.22,0,0,0-.15.33l1,.24-.84-.57a6.81,6.81,0,0,1-2.23,2,9.16,9.16,0,0,1-3,1.13h0a2,2,0,0,1-.35,0,6.09,6.09,0,0,1-2.16-.55,19.45,19.45,0,0,1-2.47-1.31c-3.31-2-6.43-4.58-9.84-6.91-1.86-1.27-3.78-2.26-5.7-3.39a1.63,1.63,0,0,0-1.41-.13,1.65,1.65,0,0,0-1,1c-.28.81-.53,1.51-.71,2.17a7,7,0,0,0-.32,2,4.16,4.16,0,0,0,.47,2,5.47,5.47,0,0,0,.89,1.25,16.26,16.26,0,0,0,2,1.75c.8.62,1.76,1.33,2.93,2.19,3,2.2,6,4.49,8.84,6.64l1-1.32-1.57-.51a12.28,12.28,0,0,1-2.6,4.84,4.51,4.51,0,0,1-1.42,1,3.92,3.92,0,0,1-1.59.31,6.83,6.83,0,0,1-2.32-.46,15.37,15.37,0,0,1-2.92-1.53c-1.27-.82-2.23-1.45-3.09-1.92a8.38,8.38,0,0,0-1.28-.57,4.54,4.54,0,0,0-1.38-.24,3.91,3.91,0,0,0-1.32.24,6.62,6.62,0,0,0-1.65,1c-.52.39-1,.84-1.69,1.38a1.64,1.64,0,0,0-.58,1.17,1.6,1.6,0,0,0,.45,1.23l5.63,6,1.2-1.13L106,125.37a11.17,11.17,0,0,1-3.93,2.47,12.59,12.59,0,0,1-4.3.68,28.28,28.28,0,0,1-4.58-.44L93,129.71l1.5.71a68.54,68.54,0,0,0,2.91-7A18,18,0,0,0,98.43,118a8.9,8.9,0,0,0-.66-3.45,8.78,8.78,0,0,0-1.36-2.24,15.71,15.71,0,0,0-3.21-2.9,48.08,48.08,0,0,0-4.55-2.76l-.79,1.45,1.63-.24A41.83,41.83,0,0,0,88,101a13.94,13.94,0,0,0-1.84-3.75,10.15,10.15,0,0,0-2.06-2.13A14.44,14.44,0,0,0,79.91,93a41,41,0,0,0-5.7-1.44l-.31,1.62,1.57-.51a21.41,21.41,0,0,0-5.32-9.07A13,13,0,0,0,66.24,81a11.92,11.92,0,0,0-4.6-.92A14.8,14.8,0,0,0,56,81.22a24.37,24.37,0,0,0-5.84,3.54l1,1.29,1.31-1L31.45,57.32l-1.32,1,1.43.83c6.24-10.86,13-22.67,19.86-34.45a6.14,6.14,0,0,1,.79-1.11,1.87,1.87,0,0,1,.66-.53A133,133,0,0,1,66.06,18.6a51.64,51.64,0,0,1,13.38-1.94,39,39,0,0,1,6.5.54,11.77,11.77,0,0,1,2,.59c.78.3,1.72.68,2.89,1.09l.54-1.56-1.08-1.26c-4,3.5-7.5,6.53-11,9.51a35.07,35.07,0,0,0-10,13.74,42.21,42.21,0,0,0-2.85,15.94,67.35,67.35,0,0,0,.49,7.84A13.36,13.36,0,0,0,70,70.7a8.7,8.7,0,0,0,6.51,2.86,11.17,11.17,0,0,0,4.32-.93,16.74,16.74,0,0,0,4.28-2.7c4.24-3.61,7.64-8,11.28-11.75,2.46-2.57,5-5.11,8.19-8.41l-1.18-1.16-1.06,1.28Zm63.33,9.14,1.44-.83c-1.92-3.33-4.19-6.71-6.34-10.21a65.33,65.33,0,0,1-5.57-10.88,32.78,32.78,0,0,0-5.38-9.46,29.69,29.69,0,0,0-11.64-8.47,56.79,56.79,0,0,0-14.42-3.63c-.5-.07-1.06-.19-1.68-.3a11.37,11.37,0,0,0-2-.22l-.68,0h0c-2.5.26-5.3.22-8.09.41a29,29,0,0,0-4.16.54,15,15,0,0,0-4,1.42,121.29,121.29,0,0,0-24.36,17.1,23.42,23.42,0,0,0-6.29,9.51A32,32,0,0,0,72,53.46a71.58,71.58,0,0,0,1,10.83,3.56,3.56,0,0,0,.24.78,4,4,0,0,0,.67,1c.36.4.74.73,1.15,1.11a18.2,18.2,0,0,1,1.34,1.32,1.66,1.66,0,0,0,2.4,0l25.55-26.24-1.19-1.15L102,42.38l48.86,40.7a1.65,1.65,0,0,0,1.33.36,1.68,1.68,0,0,0,1.14-.76l14.81-24.06a1.67,1.67,0,0,0,0-1.7l-1.44.83-1.4-.87L150.53,80.94l1.41.87L153,80.54l-48.86-40.7a1.65,1.65,0,0,0-2.25.11c-8.69,8.94-17,17.46-25.54,26.24l1.19,1.15,1.21-1.12c-.87-.93-1.63-1.59-2.11-2a3.25,3.25,0,0,1-.45-.47l0,0h0l-.2.11.21-.07v0l-.2.11.21-.07-.5.18.53-.08,0-.1-.5.18.53-.08a68.39,68.39,0,0,1-.94-10.33,28.82,28.82,0,0,1,1.46-9.6,20,20,0,0,1,5.42-8.18,118.07,118.07,0,0,1,23.68-16.62A11.79,11.79,0,0,1,108.9,18a32.85,32.85,0,0,1,5.68-.58c2-.08,4.13-.1,6.2-.31h0l.35,0a8.42,8.42,0,0,1,1.44.17c.55.09,1.16.22,1.82.32,6.61.9,12.56,2.41,17.44,5.34a25.23,25.23,0,0,1,6.52,5.59A29.28,29.28,0,0,1,153.18,37,68.39,68.39,0,0,0,159,48.44c2.19,3.58,4.45,6.94,6.29,10.14l1.43-.83-1.4-.87ZM191.29,53l1.43-.83L166.36,6.58a1.69,1.69,0,0,0-1.56-.83,21.1,21.1,0,0,0-9.2,2.9,55.9,55.9,0,0,0-7.5,5.54,1.67,1.67,0,0,0-.4,2.08c8.69,15.82,17.18,31.36,27.47,46.89a1.65,1.65,0,0,0,2.26.49l14.73-9.21a1.65,1.65,0,0,0,.56-2.23l-1.43.83-.88-1.41-14.74,9.21.88,1.41,1.38-.92C167.74,46,159.3,30.51,150.6,14.67l-1.45.8,1.06,1.28a54.19,54.19,0,0,1,7-5.24,17.79,17.79,0,0,1,7.79-2.46l-.12-1.65-1.44.83,26.36,45.63,1.44-.82-.88-1.41ZM5.83,53.22,5,54.65l15.46,9.18A1.64,1.64,0,0,0,21.7,64a1.66,1.66,0,0,0,1-.77c9.25-16,18-31.16,26.53-45.93a1.65,1.65,0,0,0-.15-1.86,26.15,26.15,0,0,0-7.59-6.74,17.68,17.68,0,0,0-8.72-2.22l-1.06,0a1.67,1.67,0,0,0-1.35.83L4.39,52.4A1.67,1.67,0,0,0,5,54.65l.85-1.43,1.43.83c9.25-16,17.71-30.7,26-45l-1.43-.83.08,1.66.89,0a14.26,14.26,0,0,1,7.11,1.8,23,23,0,0,1,6.62,5.92l1.29-1-1.43-.83L19.85,61.58l1.43.83L22.13,61,6.67,51.8l-.84,1.42,1.43.83ZM58.7,115.57l-1.47.77a24.43,24.43,0,0,0,4.32,6.22,9.4,9.4,0,0,0,2.38,1.75,5.86,5.86,0,0,0,2.65.65,5.55,5.55,0,0,0,2.4-.55,7.8,7.8,0,0,0,2.1-1.48,92,92,0,0,0,11-13.05,8,8,0,0,0,1.52-4.6,6.77,6.77,0,0,0-.94-3.46,6.63,6.63,0,0,0-2.85-2.55,9,9,0,0,0-2.17-.69,13.31,13.31,0,0,0-2.37-.22,10.81,10.81,0,0,0-2.68.32,6.13,6.13,0,0,0-1.24.45,4.32,4.32,0,0,0-1.13.76c-4.82,4.51-8.69,9.81-12.76,14.61a1.67,1.67,0,0,0-.2,1.84l1.47-.77L60,116.64c4.17-4.92,8-10.12,12.49-14.34a1.65,1.65,0,0,1,.31-.2,4.68,4.68,0,0,1,1-.31,8.06,8.06,0,0,1,1.44-.12,10,10,0,0,1,1.75.16,5.7,5.7,0,0,1,1.35.42,3.25,3.25,0,0,1,1.92,3,4.65,4.65,0,0,1-.91,2.68,88.35,88.35,0,0,1-10.57,12.58,4.55,4.55,0,0,1-1.21.88,2.22,2.22,0,0,1-1,.23,2.63,2.63,0,0,1-1.18-.3A7.93,7.93,0,0,1,63,119.24a25.94,25.94,0,0,1-2.83-4.43l-1.46.76L60,116.64Zm-5.78-4.45.67,1.51h0l.51-.16A11,11,0,0,0,55.5,112a4.71,4.71,0,0,0,1.58-1.12,168.14,168.14,0,0,0,10.85-13,7.26,7.26,0,0,0,1.49-4.3,6.91,6.91,0,0,0-1-3.46A9.49,9.49,0,0,0,66,87.36a7.94,7.94,0,0,0-4.92-1.84,7,7,0,0,0-3.1.74,9.39,9.39,0,0,0-2.65,2,119.74,119.74,0,0,0-10,12,7.45,7.45,0,0,0-1.42,4.34,7.82,7.82,0,0,0,2.58,5.71,9.59,9.59,0,0,0,6.48,2.47,1.59,1.59,0,0,0,.68-.14l-.67-1.51,0-1.66a6.27,6.27,0,0,1-4.26-1.58,4.56,4.56,0,0,1-1.52-3.29,4.16,4.16,0,0,1,.81-2.43,118.22,118.22,0,0,1,9.77-11.63,5.81,5.81,0,0,1,1.69-1.3,3.5,3.5,0,0,1,1.63-.4A4.67,4.67,0,0,1,63.94,90a6.38,6.38,0,0,1,1.65,1.82,3.56,3.56,0,0,1,.52,1.82A4,4,0,0,1,65.26,96c-3.22,4.41-6.93,8.54-10.65,12.7a1.19,1.19,0,0,1-.28.2,4.53,4.53,0,0,1-.91.36l-.55.16a5.81,5.81,0,0,0-.61.22l.66,1.52,0-1.66ZM76.24,124.3l-1.35,1a16.13,16.13,0,0,0,3.47,3.81,7.29,7.29,0,0,0,1.9,1.06,5.9,5.9,0,0,0,2.06.37,6.52,6.52,0,0,0,2.27-.42,10.25,10.25,0,0,0,2.16-1.1,14,14,0,0,0,4.31-4.59,12.94,12.94,0,0,0,1.24-2.75,9.25,9.25,0,0,0,.47-2.81,5.87,5.87,0,0,0-.59-2.66,6.56,6.56,0,0,0-2.38-2.64,6.15,6.15,0,0,0-3.29-1,6.76,6.76,0,0,0-4.8,2.11c-2.6,2.66-4.53,5.72-6.78,8.61a1.65,1.65,0,0,0,0,2l1.35-1,1.31,1c2.35-3.06,4.25-6,6.53-8.32a3.41,3.41,0,0,1,2.43-1.12,2.81,2.81,0,0,1,1.53.45,3.28,3.28,0,0,1,1.19,1.32,2.71,2.71,0,0,1,.23,1.17,6.19,6.19,0,0,1-.31,1.81,10.73,10.73,0,0,1-1.61,3.08,10.22,10.22,0,0,1-2.6,2.49,7.41,7.41,0,0,1-1.47.76,3.31,3.31,0,0,1-1.15.22,2.61,2.61,0,0,1-.92-.17,5.21,5.21,0,0,1-1.68-1.11,16.07,16.07,0,0,1-2.12-2.55l-1.36,1,1.31,1ZM47.06,91l1.37-.92-7.54-11.3A1.66,1.66,0,0,0,39.6,78a1.63,1.63,0,0,0-1.36.6A34.81,34.81,0,0,0,34.47,84a12.69,12.69,0,0,0-1,2.32,7.7,7.7,0,0,0-.36,2.24,5.88,5.88,0,0,0,.62,2.66,7.6,7.6,0,0,0,1.67,2.18,10.38,10.38,0,0,0,2.72,1.88,7,7,0,0,0,3,.69,7.71,7.71,0,0,0,3.72-1,14.52,14.52,0,0,0,3.42-2.78,1.66,1.66,0,0,0,.17-2.06L47.06,91l-1.21-1.13A11.23,11.23,0,0,1,43.23,92a4.26,4.26,0,0,1-2.11.61,3.63,3.63,0,0,1-1.6-.38,6.94,6.94,0,0,1-1.86-1.31,4.3,4.3,0,0,1-1-1.22,2.63,2.63,0,0,1-.27-1.19,4.45,4.45,0,0,1,.21-1.27A12.05,12.05,0,0,1,38,84.51a38.29,38.29,0,0,1,2.8-3.76l-1.28-1.06-1.37.92,7.54,11.31L47.06,91l-1.21-1.13Z"/></g></g></svg>