<svg xmlns="http://www.w3.org/2000/svg" viewBox="0 0 173.61 150.31"><defs><style>.cls-1{fill:#ffffff;}</style></defs><title>Fichier 9</title><g id="Calque_2" data-name="Calque 2"><g id="Calque_1-2" data-name="Calque 1"><path class="cls-1" d="M61.44,118.6H37.54c-3.81,0-5-1.2-5-4.93q0-10.71,0-21.43c0-3.18,1.35-4.56,4.51-4.56q24.52,0,49,0c3.14,0,4.52,1.42,4.53,4.57q0,10.89,0,21.78c0,3.15-1.39,4.54-4.54,4.55C77.85,118.61,69.65,118.59,61.44,118.6ZM82.88,95.43H40.2v15.46H82.88Z"/><path class="cls-1" d="M17.26,142.76v-2.41q0-34.45,0-68.9a3,3,0,0,0-1.73-3A15.78,15.78,0,0,1,7.23,54.16c-.1-9.62,0-19.25,0-28.87,0-2.9,1.47-4.33,4.37-4.35,2.54,0,5.08-.08,7.62,0a1.8,1.8,0,0,0,2.1-1.55C23,14,24.76,8.62,26.52,3.24,27.32.81,28.41,0,30.94,0H142.52c2.75,0,3.76.76,4.63,3.43,1.74,5.33,3.5,10.66,5.16,16A1.8,1.8,0,0,0,154.42,21c2.59-.09,5.19-.05,7.79,0s4.17,1.48,4.18,4.18c0,9.74.11,19.49,0,29.22-.09,6.43-3.14,11.26-8.79,14.36a2,2,0,0,0-1.24,2.06q0,35.14,0,70.31c0,1.3.35,1.75,1.7,1.72,3.48-.09,7,0,10.45,0s5.11,1.26,5.14,3.73-1.75,3.81-5.08,3.81H5.59c-.65,0-1.3,0-1.94,0A3.8,3.8,0,0,1,0,146.47a3.69,3.69,0,0,1,3.74-3.69c3.78-.06,7.56,0,11.34,0Zm7.68-72.18v72.07h76.74v-2.18q0-23.93,0-47.83c0-3.72,1.25-5,5-5q14.7,0,29.41,0c3.78,0,5,1.2,5,5v50h7.58v-72a17.15,17.15,0,0,1-11.32-5.87c-3.5,3.78-7.6,5.85-12.62,5.87s-9.21-2.13-12.69-5.82A16.71,16.71,0,0,1,99.46,70.6c-5.07,0-9.2-2.12-12.67-5.82a16.6,16.6,0,0,1-25.26,0,16.68,16.68,0,0,1-12.6,5.82c-5.08,0-9.21-2.11-12.69-5.84A17.16,17.16,0,0,1,24.94,70.58Zm3.9-49.77h116c-1.27-3.93-2.57-7.65-3.66-11.44-.43-1.49-1.15-1.84-2.6-1.84-17.77,0-35.53,0-53.3,0q-25.23,0-50.46,0c-1.26,0-1.9.32-2.25,1.6-.66,2.38-1.51,4.72-2.27,7.08C29.79,17.7,29.34,19.2,28.84,20.81Zm80.53,121.87c.65,0,1.17.07,1.69.07,6.84,0,13.68-.06,20.52.05,1.74,0,2-.6,2-2.12-.05-14.46,0-28.91,0-43.36V95.37H109.37ZM40.2,28.57a6.23,6.23,0,0,0-.14.87c0,8.37-.14,16.74.11,25.11a10.45,10.45,0,0,0,2.29,5.55,8.26,8.26,0,0,0,9.48,2.38,8.7,8.7,0,0,0,5.78-8.3c.05-8.13,0-16.27,0-24.41a9.34,9.34,0,0,0-.17-1.2Zm75.7,0c0,8.94-.08,17.67,0,26.39a7.86,7.86,0,0,0,3.93,6.58,8.35,8.35,0,0,0,8.9.45,8.49,8.49,0,0,0,4.77-7.91c.05-8,0-16,0-24,0-.46-.08-.91-.12-1.46Zm-101-.1c-.06.64-.12,1-.12,1.45,0,8.07,0,16.15,0,24.23A8.81,8.81,0,0,0,23.35,63a8.65,8.65,0,0,0,9.06-8.3c.23-8.36.1-16.74.05-25.11a1.57,1.57,0,0,0-1.09-1.09C26,28.46,20.54,28.49,14.94,28.49Zm75.76,0c0,.83-.08,1.36-.08,1.88q0,11.67,0,23.34c0,5.37,3.74,9.33,8.77,9.35s8.87-3.94,8.9-9.25c0-7.9,0-15.8,0-23.7,0-1.4-.49-1.71-1.75-1.64-1.58.09-3.18,0-4.77,0Zm68.1,0c-5.5,0-10.74.05-16,0-1.46,0-1.77.49-1.76,1.83.06,7.78,0,15.56.05,23.35a11.05,11.05,0,0,0,.43,3.13A8.8,8.8,0,0,0,150.91,63a8.7,8.7,0,0,0,7.84-8.41c.11-5.43,0-10.85.05-16.27Zm-76,0c-5.34,0-10.58.05-15.81,0-1.46,0-1.76.49-1.75,1.83,0,7.79,0,15.57,0,23.35a11.51,11.51,0,0,0,.48,3.3A8.83,8.83,0,0,0,75.11,63,8.67,8.67,0,0,0,83,54.58c.11-8.37,0-16.74,0-25.11A8.91,8.91,0,0,0,82.84,28.48Z"/></g></g></svg>