<svg xmlns="http://www.w3.org/2000/svg" viewBox="0 0 180.99 180.94"><defs><style>.cls-1{fill:#ffffff;}</style></defs><title>Fichier 7</title><g id="Calque_2" data-name="Calque 2"><g id="Calque_1-2" data-name="Calque 1"><path class="cls-1" d="M48.38,105.58c3,0,5.72,0,8.48,0,2.48,0,3.5,1.07,3.51,3.58,0,2.75,0,5.5,0,8.48,1,0,1.84,0,2.7,0,2.24,0,3.31,1.1,3.32,3.38q0,12.24,0,24.49v2.16h9c0-2.82,0-5.57,0-8.31s1-3.63,3.64-3.64h22.79c2.73,0,3.71,1,3.71,3.76s0,5.38,0,8.19h21.1c0-2.87,0-5.68,0-8.49,0-2.4,1-3.44,3.44-3.45q11.67,0,23.35,0c2.24,0,3.32,1.1,3.34,3.37,0,2.81,0,5.63,0,8.68H172a9,9,0,0,1,8.76,6.9,8.82,8.82,0,0,1-4.29,9.95,2.56,2.56,0,0,0-1.53,2.78c.07,3.27,0,6.53,0,9.8,0,2.74-1,3.73-3.74,3.73H10.5c-3.64,0-4.39-.75-4.39-4.39,0-3.27.06-6.54-.05-9.8A2.55,2.55,0,0,0,5,165c-3.86-2.28-5.7-6.31-4.62-10.36a9,9,0,0,1,9-6.81h2.79V121.87c0-3.43.78-4.21,4.17-4.23h1.86v-6.31c0-5.55.2-5.75,5.85-5.75h6.1V77.47C18.36,74.34,9.45,67.44,4,56.4A38.21,38.21,0,0,1,1.27,29.49,39.21,39.21,0,0,1,42.6.15C61.51,1.8,77.17,16.67,78.52,37.6l12.59,3.17c1.82.46,3.64.89,5.45,1.38,2.76.75,3.4,1.9,2.72,4.73-.13.54-.22,1.09-.37,1.83,3.34.86,6.65,1.73,10,2.55,8.8,2.2,17.6,4.4,26.42,6.53a6.68,6.68,0,0,0,3.08,0A12.08,12.08,0,0,1,153.8,69.56c0,6.72,0,13.44,0,20.16,0,2.45-.5,3.12-3,4V113c0,3.93-.61,4.56-4.56,4.6-.42,0-.84,0-1.4,0v11.92h-6.05V117.63c-.94,0-1.67,0-2.41,0-2.64,0-3.65-1-3.65-3.61,0-6.72,0-13.44,0-20.32-2.64-.47-3.12-2.29-3.05-4.69.13-4.44,0-8.9,0-13.43L94.4,66.75c-.29,1-.56,2-.84,2.94-.7,2.45-1.93,3.13-4.55,2.48-6.86-1.7-13.72-3.42-20.59-5.07a2.25,2.25,0,0,0-1.8.3,40.53,40.53,0,0,1-18.24,10ZM12.23,174.79h156.5V166H12.23ZM6.12,39A33.15,33.15,0,1,0,39.57,6.1,33.34,33.34,0,0,0,6.12,39Zm54.11,108.7V123.82h-42v23.84H24.2c0-2.95,0-5.76,0-8.58,0-2.26,1.08-3.34,3.34-3.35H50.89c2.38,0,3.43,1.06,3.44,3.45,0,2.81,0,5.62,0,8.51Zm28.05-82c1.53-6.13,3-12,4.55-18.18L78.22,43.89a40.15,40.15,0,0,1-6.64,17.6Zm9.09-11c-.52,2.07-1,4-1.53,6.13l33.51,8.36c.64-2.21,1.19-4.1,1.75-6Zm-73.08,57v5.85H54.22v-5.85Zm17.87-6.19V78.58H36.35v26.91ZM31.75,159.76H58.54c-.39-1-1.11-2-1.1-3a8.42,8.42,0,0,1,1.13-2.85H31.69C33.81,156.23,33.81,157.33,31.75,159.76Zm30.14,0H88.68c-.39-1-1.1-2-1.09-3a8.32,8.32,0,0,1,1.12-2.86H61.83C64,156.23,64,157.33,61.89,159.76Zm30-5.91c2.22,2.36,2.23,3.46.19,5.9h26.76c-.4-1-1.11-2-1.09-3s.76-2,1.17-2.92Zm30.29,5.91H149c-.4-1-1.11-2-1.1-3s.75-2,1.12-2.86H122.12C124.23,156.23,124.24,157.35,122.16,159.76Zm-93.74.06c-.42-1-1.13-2-1.12-3s.75-2,1.17-3c-6.32,0-12.77,0-19.23,0a3,3,0,0,0-3.1,2.93,3,3,0,0,0,3,3C15.63,159.87,22.13,159.82,28.42,159.82Zm123.73,0c6.67,0,13.06,0,19.46,0a3.09,3.09,0,0,0,3.27-3,3,3,0,0,0-3-3c-6.49-.07-13,0-19.62,0C154.38,156.31,154.38,157.42,152.15,159.84ZM141.82,75.41a6,6,0,1,0-6.08-5.94A6.18,6.18,0,0,0,141.82,75.41Zm2.82,36.11V93.67h-5.81v17.85ZM30.33,141.84v5.82H48.17v-5.82Zm51.26,0v5.81H99.47v-5.81Zm69.08,5.94v-5.89H132.8v5.79a7,7,0,0,0,.8.09ZM135.85,80v7.35h11.84V80A12.63,12.63,0,0,1,135.85,80Z"/></g></g></svg>